<?xml version="1.0" standalone="no"?>
<!DOCTYPE svg PUBLIC "-//W3C//DTD SVG 20010904//EN"
 "http://www.w3.org/TR/2001/REC-SVG-20010904/DTD/svg10.dtd">
<svg version="1.0" xmlns="http://www.w3.org/2000/svg"
 width="140.000000pt" height="180.000000pt" viewBox="0 0 140.000000 180.000000"
 preserveAspectRatio="xMidYMid meet">
<metadata>
Created by potrace 1.16, written by Peter Selinger 2001-2019
</metadata>
<g transform="translate(0.000000,180.000000) scale(0.100000,-0.100000)"
fill="#000000" stroke="none">
<path d="M465 1783 c-73 -83 -115 -138 -115 -150 0 -8 -11 -29 -25 -48 -14
-18 -25 -37 -23 -41 1 -5 -3 -19 -10 -30 -6 -12 -9 -24 -6 -26 5 -5 2 -18 -30
-143 -16 -62 -19 -152 -7 -194 5 -18 10 -4 19 55 8 52 25 104 49 152 37 72 52
88 54 55 0 -11 3 -13 6 -5 2 6 9 10 14 7 5 -4 6 0 3 8 -3 8 0 18 5 22 6 3 9
10 7 14 -3 3 4 7 14 7 10 0 18 -3 18 -6 -2 -25 3 -30 20 -21 13 7 23 6 32 -2
7 -7 10 -7 7 -1 -7 13 61 36 77 26 17 -10 35 -11 42 -1 3 5 10 6 16 3 6 -4 14
-1 18 7 5 7 14 14 22 15 7 2 46 12 87 23 56 16 78 18 93 10 15 -8 19 -8 14 0
-10 15 13 36 58 55 40 17 45 30 19 45 -11 6 -13 11 -5 12 6 1 17 2 22 3 6 0
10 4 10 9 0 4 0 11 0 16 0 10 -14 9 -40 -2 -8 -4 -29 -8 -47 -10 -17 -2 -38
-9 -46 -16 -12 -9 -16 -8 -20 3 -3 8 1 20 9 27 14 12 14 14 -2 26 -13 9 -21
10 -31 2 -9 -8 -13 -8 -13 0 0 6 3 11 8 11 4 0 7 11 7 25 0 14 -5 25 -12 25
-6 0 -13 4 -15 8 -1 4 -10 0 -20 -9 -14 -15 -15 -20 -2 -45 11 -21 12 -29 2
-35 -12 -8 -58 48 -58 70 0 5 -9 17 -21 25 -12 8 -19 19 -15 24 3 6 -30 10
-84 11 -75 2 -92 -1 -105 -16z"/>
<path d="M353 1180 c-43 -19 -83 -69 -83 -102 0 -20 26 -24 33 -5 3 7 6 5 6
-5 1 -10 -9 -23 -21 -29 -14 -8 -18 -14 -10 -17 6 -2 10 -8 6 -13 -3 -5 2 -9
10 -9 8 0 18 5 21 10 3 6 11 10 16 10 6 0 8 -4 4 -9 -3 -5 0 -13 7 -18 9 -5 4
-9 -15 -13 l-27 -5 22 -32 c34 -47 46 -52 115 -40 50 8 68 16 94 43 32 33 33
36 22 76 -6 23 -9 52 -7 65 2 12 0 23 -5 23 -5 0 -12 8 -16 19 -3 10 -17 31
-30 45 -30 32 -81 34 -142 6z"/>
<path d="M780 1153 c-44 -7 -70 -25 -70 -50 0 -13 5 -23 11 -23 6 0 -1 -14
-15 -31 -31 -37 -32 -52 -6 -77 42 -39 109 -64 148 -57 l37 8 -31 8 c-39 11
-51 36 -27 56 21 16 102 12 113 -7 5 -8 9 -4 13 12 8 29 -15 54 -69 74 l-39
15 54 -4 c29 -2 57 -10 61 -17 4 -6 17 -10 29 -8 l23 3 -24 35 c-13 19 -35 40
-48 46 -28 13 -122 23 -160 17z"/>
<path d="M445 860 c-9 -10 -28 -21 -43 -25 -14 -3 -60 -38 -100 -77 -68 -64
-76 -69 -85 -52 -19 33 -36 46 -56 39 -24 -7 -46 -33 -46 -54 0 -9 -10 -17
-22 -19 -18 -3 -23 2 -24 20 0 23 0 23 -9 2 -4 -12 -20 -30 -34 -42 -16 -12
-26 -30 -26 -47 0 -14 4 -24 9 -21 5 3 14 0 20 -8 7 -8 21 -12 33 -8 24 6 48
-20 48 -51 0 -24 23 -47 48 -47 55 0 113 -58 89 -89 -6 -7 -16 -23 -22 -35 -6
-11 -18 -20 -27 -20 -9 1 -19 -9 -22 -22 -3 -12 -15 -25 -25 -29 -23 -7 -36
-52 -21 -70 12 -14 24 -11 86 17 29 14 77 2 108 -27 20 -18 26 -34 26 -64 0
-34 5 -42 34 -60 41 -26 46 -26 46 -3 0 14 2 14 9 3 5 -8 7 -21 3 -29 -3 -10
-1 -13 6 -8 7 4 12 3 12 -2 0 -6 13 -9 29 -8 17 1 28 -2 25 -6 -3 -4 10 -9 28
-9 37 -2 34 -2 78 6 20 4 29 2 25 -5 -8 -13 11 -13 36 0 13 8 19 7 19 0 0 -7
8 -6 23 2 12 7 28 11 35 9 8 -1 20 3 28 10 11 9 14 9 14 0 0 -7 5 -9 10 -6 6
4 7 11 4 17 -4 6 -2 8 3 5 14 -9 36 26 89 131 31 64 37 85 27 89 -11 4 -11 8
-1 20 10 12 9 14 -3 13 -37 -6 -40 0 -19 30 20 28 20 30 3 31 -15 0 -14 2 5 9
24 10 24 9 28 65 1 22 6 51 10 64 5 17 4 22 -4 17 -7 -4 -12 -15 -12 -25 0
-10 -7 -24 -15 -31 -12 -10 -14 -7 -12 19 1 17 5 31 8 31 3 0 1 31 -6 69 -14
85 -58 147 -155 223 l-35 27 -6 -28 c-3 -15 -9 -33 -13 -39 -9 -15 -39 -15
-53 -1 -15 15 -51 2 -58 -22 -9 -29 -48 -24 -78 11 -15 17 -36 30 -46 30 -27
0 -33 13 -21 45 7 18 15 25 25 21 19 -7 19 1 1 19 -12 12 -16 11 -31 -5z m304
-306 c3 -3 -1 -10 -7 -16 -19 -19 -15 -41 7 -35 11 3 22 -1 25 -9 3 -8 0 -11
-10 -7 -8 3 -14 -1 -14 -11 0 -9 -5 -16 -11 -16 -6 0 -9 -7 -5 -15 3 -9 0 -15
-10 -15 -11 0 -14 6 -10 16 3 8 2 12 -4 9 -6 -3 -10 -15 -10 -25 0 -12 -6 -17
-17 -15 -10 2 -31 4 -47 4 -25 1 -27 3 -15 17 7 9 18 26 24 38 7 11 16 20 22
19 6 -1 13 3 16 10 3 7 -3 14 -12 15 -51 6 -91 15 -91 21 0 16 59 29 110 24
30 -3 57 -7 59 -9z"/>
</g>
</svg>
